<svg xmlns="http://www.w3.org/2000/svg" viewBox="0 0 560 120" width="560" height="120"><defs><linearGradient id="gg" x1="0" y1="0" x2="1" y2="1"><stop offset="0" stop-color="#3AA0FF"/><stop offset="1" stop-color="#0246B8"/></linearGradient></defs><g transform="translate(8 8) scale(0.0889)"><path fill="url(#gg)" opacity="1.000000" stroke="none" 
	d="
M553.416626,1081.000000 
	C544.301086,1076.727295 542.412964,1070.088623 543.670227,1060.565796 
	C548.874634,1021.148071 553.291260,981.626587 558.034119,942.147522 
	C559.264343,931.907471 560.529419,921.669617 561.963135,911.456665 
	C563.037537,903.803223 569.355835,899.113708 576.857971,900.091980 
	C584.246521,901.055542 589.288696,907.491943 588.395691,914.961670 
	C582.569275,963.698059 576.722107,1012.431946 570.871521,1061.165405 
	C570.554443,1063.806152 570.208618,1066.446777 569.766479,1069.068848 
	C568.652649,1075.674805 565.043640,1079.190308 558.158325,1080.664062 
	C556.611084,1081.000000 555.222229,1081.000000 553.416626,1081.000000 
z"/><path fill="#0246B8" opacity="1.000000" stroke="none" 
	d="
M869.774658,389.772766 
	C813.416077,445.992340 757.328857,501.983429 701.218994,557.951843 
	C626.265076,632.716858 551.284851,707.455444 476.336090,782.225586 
	C458.545746,799.973572 440.861481,817.828125 422.995148,835.498962 
	C422.273743,836.212463 419.559052,836.162903 418.816223,835.422424 
	C385.557587,802.268066 352.452423,768.959961 319.252197,735.746948 
	C270.875092,687.351135 222.453156,639.000061 173.979370,590.701172 
	C172.032745,588.761597 171.538300,587.968689 173.810074,585.721985 
	C206.809891,553.086670 239.675537,520.315613 272.577209,487.581024 
	C273.512726,486.650238 274.491943,485.763336 276.353607,484.001587 
	C284.618073,492.564819 292.683990,501.145020 300.987915,509.488403 
	C339.616486,548.300720 378.359436,586.999512 416.902313,625.896667 
	C420.512543,629.540039 422.284210,627.243042 424.545197,624.988159 
	C445.879486,603.711426 467.187042,582.407898 488.521393,561.131287 
	C523.770264,525.977783 559.047302,490.852570 594.287109,455.690063 
	C654.635010,395.474579 714.953674,335.229858 775.309143,275.022064 
	C785.646179,264.710297 796.105469,254.521179 806.491089,244.292358 
	C824.840942,262.564667 843.318298,280.968201 861.800598,299.366821 
	C877.256042,314.752289 892.679199,330.170532 908.217407,345.471893 
	C910.505371,347.724976 910.686462,349.119537 908.279114,351.480377 
	C895.439758,364.071503 882.766541,376.832153 869.774658,389.772766 
z"/><path fill="url(#gg)" opacity="1.000000" stroke="none" 
	d="
M349.617798,183.582611 
	C264.464569,226.374039 201.262711,290.732178 157.496765,374.592712 
	C137.116791,413.643066 122.823204,454.904755 114.169853,498.031586 
	C106.927292,534.127258 109.375191,570.198303 115.197083,606.349182 
	C122.898689,654.172119 130.182449,702.081055 136.461182,750.107910 
	C140.717422,782.664551 141.593674,815.544556 140.802338,848.412048 
	C140.629318,855.597839 138.241852,857.945496 131.111465,858.129456 
	C119.662445,858.424805 113.282982,852.370850 113.106812,841.152405 
	C112.132095,779.080261 106.753044,717.413940 96.139801,656.222351 
	C92.271370,633.918579 88.126900,611.647522 84.962456,589.240845 
	C81.428062,564.214539 81.901291,539.075806 85.205238,513.993164 
	C91.111351,469.155609 102.942802,425.990234 121.410553,384.676636 
	C151.661972,317.002106 195.635193,259.852051 253.414261,213.453064 
	C309.366425,168.521164 372.535767,138.405487 442.549774,122.721733 
	C490.263794,112.033386 538.572998,109.066368 587.117310,114.251282 
	C697.064575,125.994514 792.513428,169.026077 870.435913,248.451904 
	C882.527466,260.776733 893.598877,274.239716 903.940857,288.074280 
	C907.936890,293.419769 909.397461,301.130524 910.528748,308.007812 
	C911.543518,314.176697 907.197083,317.487549 900.879883,316.899384 
	C895.625305,316.410156 891.616699,313.870941 888.241882,309.751678 
	C861.746216,277.411713 832.279358,248.108185 798.827515,222.925873 
	C747.310425,184.144043 690.133362,157.853317 626.532410,146.633896 
	C550.362915,133.197372 475.173340,137.822067 401.623657,162.261642 
	C384.000977,168.117416 367.146942,176.286514 349.617798,183.582611 
z"/><path fill="url(#gg)" opacity="1.000000" stroke="none" 
	d="
M889.918274,200.086212 
	C946.657227,254.365601 990.390198,317.201630 1019.916077,389.646637 
	C1035.139160,426.998199 1045.006836,465.892059 1048.857422,506.057434 
	C1051.000122,528.408264 1051.485107,550.927002 1052.384033,573.383423 
	C1052.702393,581.336182 1049.908691,584.163513 1043.364624,584.297058 
	C1032.952637,584.509521 1028.636841,581.516907 1028.126099,573.537964 
	C1024.782104,521.302795 1016.021301,470.037811 999.902771,420.186066 
	C970.515442,329.295929 919.288635,253.409195 843.423462,194.808426 
	C793.435425,156.195999 738.421875,126.889130 677.945496,108.373505 
	C631.876953,94.269020 584.612793,88.282028 536.428223,89.568985 
	C479.674255,91.084808 424.850220,102.641830 371.114899,120.456505 
	C364.603882,122.615089 357.034332,122.260269 350.004333,121.952431 
	C344.680969,121.719307 342.538483,117.948410 343.863586,112.698647 
	C345.727814,105.312981 349.427673,99.536736 357.250183,96.653336 
	C400.558685,80.689636 445.014252,69.775978 490.962769,64.884453 
	C523.888062,61.379353 556.807556,60.990665 589.763000,63.906487 
	C652.999451,69.501503 712.963074,86.626785 769.632080,115.268860 
	C813.784607,137.584747 853.702759,165.901840 889.918274,200.086212 
z"/><path fill="url(#gg)" opacity="1.000000" stroke="none" 
	d="
M293.200500,245.205231 
	C335.734222,213.155136 382.747406,190.918671 433.391205,176.282074 
	C450.152649,171.437851 467.418945,168.359543 484.254913,163.745697 
	C492.107666,161.593674 499.524689,168.630280 500.612457,174.605560 
	C502.095978,182.754547 497.891449,189.975891 489.932068,191.797043 
	C481.659485,193.689850 473.269379,195.068130 464.994141,196.950470 
	C370.981171,218.335129 292.993225,265.214142 234.696518,342.828217 
	C202.985077,385.047668 181.890076,432.337158 169.755096,483.713562 
	C162.901413,512.730408 158.261505,541.991760 161.156296,571.831360 
	C163.179626,592.687866 166.238174,613.465942 169.491974,634.175781 
	C174.322479,664.920898 180.834076,695.438965 184.638611,726.299194 
	C190.170288,771.169128 190.521942,816.391479 190.087845,861.573730 
	C189.943771,876.569641 189.528244,891.564209 189.106674,906.555725 
	C188.860931,915.294006 184.708588,920.017456 176.892731,920.889771 
	C167.067795,921.986267 161.904205,917.019043 162.017288,907.092834 
	C162.412003,872.447449 163.561615,837.779541 162.751572,803.159363 
	C161.749359,760.327271 156.865265,717.764221 149.478500,675.533752 
	C145.692917,653.891418 141.183960,632.365051 137.851898,610.655823 
	C127.407265,542.606628 135.907059,476.927582 163.427261,413.740448 
	C188.854004,355.360016 224.126221,304.071991 272.372681,262.118164 
	C279.028473,256.330444 286.050690,250.964035 293.200500,245.205231 
z"/><path fill="url(#gg)" opacity="1.000000" stroke="none" 
	d="
M897.656494,702.443542 
	C892.392578,666.263367 886.983459,630.545166 882.098450,594.755310 
	C877.237244,559.139709 873.899719,523.300781 865.272949,488.277130 
	C860.606934,469.333435 854.866699,450.775635 846.651978,433.039062 
	C844.999268,429.470795 847.476318,420.169830 850.803345,417.361938 
	C855.543701,413.361237 862.692078,412.252106 866.812012,415.045898 
	C867.690002,415.641266 868.298340,416.789215 868.771912,417.803528 
	C883.722046,449.823669 894.116577,483.250000 898.890137,518.285217 
	C903.205627,549.958679 906.612793,581.759033 911.168640,613.395691 
	C914.345703,635.458130 919.291138,657.263855 922.559631,679.315674 
	C930.015259,729.616089 934.301636,780.220398 935.286926,831.075134 
	C935.674194,851.061646 935.780273,871.054993 935.839355,891.045715 
	C935.863708,899.286072 930.750671,904.478210 922.651550,905.052429 
	C913.889954,905.673523 908.354187,900.584717 908.289673,891.725769 
	C908.145325,871.899292 908.189209,852.070435 907.910095,832.246033 
	C907.403259,796.253357 905.950317,760.310364 901.069336,724.593750 
	C900.077820,717.337769 898.856445,710.113159 897.656494,702.443542 
z"/><path fill="url(#gg)" opacity="1.000000" stroke="none" 
	d="
M821.973633,521.109253 
	C819.930420,510.410461 817.941162,500.152832 815.921875,489.901154 
	C814.686768,483.630585 813.274536,477.391937 812.177551,471.097931 
	C810.693665,462.584412 821.530579,452.923431 829.149475,456.252960 
	C831.650757,457.346039 834.131897,460.212555 835.094238,462.829956 
	C843.761047,486.401520 848.640381,510.859375 850.720520,535.834412 
	C853.807251,572.895142 860.578003,609.354614 867.053528,645.923828 
	C872.909729,678.995483 877.279724,712.384766 880.893311,745.786743 
	C886.797546,800.362732 887.362183,855.165344 885.002808,909.992920 
	C884.465759,922.473145 883.761414,934.947510 882.995544,947.416077 
	C882.528076,955.027283 879.110779,957.748840 871.533386,956.860107 
	C869.717041,956.647156 867.912415,956.315613 866.112244,955.985229 
	C858.070557,954.509399 854.604980,950.051758 855.321228,941.950684 
	C858.712402,903.593079 860.340332,865.169800 859.838379,826.658081 
	C859.305359,785.772888 855.079834,745.265442 848.636841,704.897095 
	C841.658691,661.175781 835.519775,617.319885 829.125488,573.506531 
	C826.601318,556.211060 824.376160,538.872070 821.973633,521.109253 
z"/><path fill="url(#gg)" opacity="1.000000" stroke="none" 
	d="
M759.701050,900.588684 
	C761.430054,848.944031 760.716614,797.816528 754.232056,746.975403 
	C748.083923,698.771912 741.102966,650.673035 734.255066,602.561340 
	C731.676575,584.445312 728.444702,566.422302 725.508179,548.357300 
	C724.554565,542.491211 732.499207,534.305725 739.430725,534.018616 
	C746.298340,533.734192 752.132629,537.939392 753.170471,544.683350 
	C756.232971,564.582764 758.957520,584.533813 761.920105,604.448914 
	C767.136047,639.510681 773.139282,674.473450 777.469666,709.643127 
	C780.986755,738.207153 783.080994,766.980347 784.831970,795.720154 
	C787.539673,840.163757 786.939331,884.669678 783.847839,929.065247 
	C781.732361,959.445374 778.178467,989.728333 775.060425,1020.033386 
	C774.265625,1027.758301 769.263428,1031.056396 761.734497,1029.605835 
	C759.939575,1029.260010 758.166504,1028.783447 756.402527,1028.297363 
	C750.309570,1026.618530 748.015381,1023.611450 748.729919,1017.393311 
	C750.003174,1006.313110 751.910278,995.295959 752.894348,984.194153 
	C755.349060,956.499390 757.434326,928.771851 759.701050,900.588684 
z"/><path fill="url(#gg)" opacity="1.000000" stroke="none" 
	d="
M680.114136,237.882935 
	C701.440063,246.686844 721.379150,257.288116 740.430481,269.611053 
	C743.169250,271.382538 744.513977,273.210236 743.879883,276.459229 
	C741.438599,288.967957 732.806335,296.885162 720.086121,289.257568 
	C682.821411,266.911957 643.151245,250.613754 600.321228,242.510483 
	C535.418274,230.231033 473.205109,239.763596 412.789154,265.212402 
	C383.732635,277.451752 357.442596,294.180847 331.945435,312.393433 
	C330.051941,313.745911 328.047546,314.943787 326.087830,316.202728 
	C319.288422,320.570679 314.421204,320.091431 309.796173,314.605438 
	C304.597260,308.438721 304.325653,302.280945 310.282288,296.889435 
	C318.659058,289.307343 327.343964,281.964996 336.510986,275.374023 
	C377.712708,245.750473 423.665131,227.312668 473.409821,217.846481 
	C511.859680,210.529648 550.465088,209.183640 589.289429,213.925446 
	C620.523621,217.740250 650.658203,225.788406 680.114136,237.882935 
z"/><path fill="url(#gg)" opacity="1.000000" stroke="none" 
	d="
M256.757843,454.713257 
	C292.269501,371.363647 350.082520,311.087830 435.541412,279.479065 
	C481.896332,262.333679 530.006714,257.517456 579.107117,262.762512 
	C589.525879,263.875458 599.902100,265.428711 610.269043,266.973328 
	C623.796936,268.988892 625.243286,278.067047 621.760803,289.316315 
	C620.278137,294.105591 615.286011,295.586700 609.211853,294.826935 
	C592.047546,292.679901 574.901428,289.834656 557.661194,288.939575 
	C468.079773,284.288757 393.185913,315.512909 333.009583,382.103577 
	C310.360657,407.166718 292.310638,435.024200 280.044891,466.592651 
	C278.941498,469.432373 276.495544,472.131073 273.995789,473.979065 
	C265.078461,480.571381 255.878677,486.782623 246.753113,493.090820 
	C245.897034,493.682587 244.810822,493.941376 243.831467,494.354767 
	C243.382736,494.086975 242.934006,493.819153 242.485275,493.551331 
	C247.194427,480.723755 251.903580,467.896210 256.757843,454.713257 
z"/><path fill="url(#gg)" opacity="1.000000" stroke="none" 
	d="
M888.891663,406.141968 
	C887.054138,402.361908 885.356934,398.934052 883.677185,395.497711 
	C879.573181,387.101837 880.224548,383.127625 888.072021,378.114471 
	C891.681946,375.808350 896.358704,374.996216 900.674377,374.092590 
	C901.772888,373.862579 903.902649,375.569580 904.607849,376.893097 
	C917.163330,400.458832 927.050720,425.135681 934.702698,450.700378 
	C946.454529,489.962006 951.505920,530.375671 956.179504,570.953613 
	C960.596741,609.306519 967.199829,647.402771 972.057922,685.711304 
	C976.224915,718.570740 979.449890,751.554077 982.747131,784.517090 
	C983.973022,796.773071 984.275024,809.124084 984.894592,821.437073 
	C985.259644,828.692383 983.170227,832.181519 978.249817,833.061646 
	C968.600464,834.787415 962.118164,832.101074 959.927368,825.298340 
	C959.324524,823.426331 959.049744,821.396667 958.948547,819.422791 
	C956.038391,762.649109 949.799622,706.261597 940.824646,650.110718 
	C933.915833,606.886475 928.369263,563.443726 922.288574,520.088074 
	C916.749268,480.592560 905.805298,442.693054 888.891663,406.141968 
z"/><path fill="url(#gg)" opacity="1.000000" stroke="none" 
	d="
M678.932007,715.122864 
	C684.850098,763.904053 687.960266,812.423096 687.717041,861.108826 
	C687.395325,925.515381 681.690247,989.474670 670.651123,1052.948120 
	C669.680115,1058.531006 667.082703,1062.921509 662.583008,1066.211304 
	C658.967102,1068.854980 655.090881,1070.952881 650.638245,1068.221313 
	C646.075439,1065.422119 643.266052,1061.474487 644.037964,1055.806274 
	C645.340759,1046.240479 646.927246,1036.709839 648.060852,1027.125122 
	C651.052063,1001.833191 654.249878,976.556824 656.660828,951.207214 
	C660.654114,909.220764 662.120605,867.114563 661.065857,824.935608 
	C660.131775,787.577576 655.346619,750.582581 650.513245,713.596680 
	C647.148438,687.849243 643.684631,662.113770 640.054504,636.402649 
	C639.288208,630.975098 641.441650,627.802612 646.085876,625.795593 
	C648.219177,624.873779 650.362915,623.703552 652.609985,623.366455 
	C660.984558,622.110535 665.328918,622.613953 666.631714,632.206482 
	C670.371338,659.743774 674.755005,687.193542 678.932007,715.122864 
z"/><path fill="url(#gg)" opacity="1.000000" stroke="none" 
	d="
M450.226379,327.206299 
	C484.812408,314.496155 520.141113,309.189087 556.535583,311.079285 
	C595.324463,313.093872 631.996155,322.985382 666.427612,341.009247 
	C673.062622,344.482483 673.791504,347.602692 669.792542,353.699493 
	C663.164490,363.804535 656.771729,365.737762 645.587158,360.417084 
	C610.132568,343.550812 572.776123,336.211273 533.634399,337.995178 
	C469.684021,340.909729 415.103851,364.497986 371.296967,411.835846 
	C348.858582,436.082794 331.582672,463.413055 320.676422,494.684967 
	C317.406952,504.059601 316.487122,504.636566 307.573792,500.347809 
	C303.842957,498.552643 300.710388,495.297546 297.680817,492.324097 
	C294.814728,489.511108 294.702820,486.079681 296.152985,482.199829 
	C303.241425,463.235046 312.907684,445.613464 324.102600,428.850250 
	C350.627380,389.132080 384.829651,357.962555 427.941650,336.964569 
	C435.109833,333.473236 442.548981,330.538208 450.226379,327.206299 
z"/><path fill="url(#gg)" opacity="1.000000" stroke="none" 
	d="
M1004.613281,735.418945 
	C1003.015381,731.809937 1001.007751,728.574097 1000.462830,725.108276 
	C995.370117,692.713074 990.043457,660.342285 985.756653,627.836304 
	C981.862305,598.305298 978.965576,568.635803 976.020752,538.988464 
	C973.132019,509.906647 967.763550,481.350494 959.550781,453.308685 
	C950.507019,422.429230 938.722473,392.604767 924.976746,363.549438 
	C922.762085,358.868103 923.099854,354.958984 926.118408,351.025665 
	C929.289124,346.894135 933.630188,346.376740 938.281372,347.338989 
	C944.189697,348.561310 948.723022,351.857513 951.080383,357.463989 
	C960.485474,379.832214 970.557617,401.964447 978.871826,424.735718 
	C989.636230,454.217712 996.057983,484.901978 999.453491,516.113098 
	C1001.272278,532.830933 1001.352478,549.760071 1003.624878,566.401611 
	C1007.700500,596.248535 1012.929626,625.936401 1017.503723,655.717346 
	C1021.218567,679.904419 1024.772461,704.117371 1028.201050,728.346680 
	C1029.308716,736.174194 1026.379150,739.547241 1018.570129,739.016296 
	C1013.953308,738.702454 1009.441345,736.847473 1004.613281,735.418945 
z"/><path fill="url(#gg)" opacity="1.000000" stroke="none" 
	d="
M808.374512,894.125610 
	C810.206177,838.251465 808.367737,782.962891 801.723083,727.959290 
	C797.972412,696.911560 792.361511,666.084656 787.358276,635.195557 
	C786.335266,628.879822 788.147522,624.170349 792.834656,620.139587 
	C796.508179,616.980469 800.523376,616.421692 804.953430,618.006958 
	C810.505310,619.993713 812.667297,624.600708 813.728638,629.854370 
	C817.519348,648.617126 821.737366,667.313171 824.848328,686.190247 
	C837.177551,761.003601 839.798340,836.323730 835.188843,911.910522 
	C833.709045,936.176147 831.072205,960.372986 828.841919,984.590027 
	C828.062195,993.056824 824.509277,997.344543 818.151489,998.225586 
	C806.554565,999.832764 801.391296,994.707886 802.243408,982.849060 
	C804.356506,953.441223 806.328430,924.023132 808.374512,894.125610 
z"/><path fill="url(#gg)" opacity="1.000000" stroke="none" 
	d="
M350.842163,545.652222 
	C344.596527,541.931213 338.801117,538.180176 336.440704,531.258118 
	C335.687775,529.050171 335.203186,526.326172 335.778595,524.151184 
	C357.262878,442.938873 407.821625,389.347076 488.873932,366.477295 
	C537.770020,352.680756 585.835632,357.919006 632.133240,379.057129 
	C636.216370,380.921356 638.246155,383.595551 637.943542,387.703674 
	C637.592590,392.468506 637.221802,397.474701 631.936523,399.993103 
	C626.313354,402.672546 620.914368,403.369537 614.724060,400.969543 
	C541.572266,372.608429 458.096924,391.658203 405.239502,448.791473 
	C382.076660,473.827972 366.783569,502.865723 361.836975,536.957214 
	C360.642487,545.189514 358.995728,546.401978 350.842163,545.652222 
z"/><path fill="url(#gg)" opacity="1.000000" stroke="none" 
	d="
M604.157593,734.872681 
	C603.377625,727.459473 602.058167,720.503357 602.077393,713.550842 
	C602.092163,708.206909 603.175476,702.657410 604.904724,697.581238 
	C606.908447,691.699585 611.998596,690.205017 617.481445,693.191101 
	C623.575867,696.510315 627.668823,701.013977 628.607971,708.585876 
	C637.945190,783.867981 640.717407,859.311951 635.347351,935.035217 
	C632.197754,979.447205 626.340393,1023.474731 617.871826,1067.170654 
	C617.037659,1071.474854 616.257507,1075.676758 611.520386,1077.736450 
	C607.278625,1079.580811 603.297485,1079.431030 599.812012,1076.462158 
	C594.949768,1072.320312 591.394531,1067.352539 592.416504,1060.462158 
	C594.370178,1047.290649 596.608154,1034.158936 598.404602,1020.966736 
	C608.839905,944.335388 612.783997,867.413757 608.208313,790.148010 
	C607.125427,771.860657 605.545410,753.602783 604.157593,734.872681 
z"/><path fill="url(#gg)" opacity="1.000000" stroke="none" 
	d="
M110.780708,298.780273 
	C150.942490,236.405823 201.954880,185.319366 263.726532,144.951141 
	C269.712860,141.039017 275.727509,137.135529 281.966461,133.653534 
	C289.498047,129.450134 297.507233,134.122864 298.003540,142.761246 
	C298.491882,151.261124 294.566498,157.297134 287.571655,161.839401 
	C253.378326,184.043655 221.852798,209.519455 193.592575,238.958893 
	C156.388596,277.715302 126.429085,321.421722 103.981499,370.252777 
	C99.404243,380.209869 87.280136,383.734711 77.947769,377.698425 
	C73.657639,374.923553 73.584412,370.775848 75.404686,366.628845 
	C80.342323,355.379669 84.991257,343.961884 90.681328,333.096252 
	C96.768074,321.473114 103.912971,310.404083 110.780708,298.780273 
z"/><path fill="url(#gg)" opacity="1.000000" stroke="none" 
	d="
M513.267700,764.265503 
	C517.607117,759.114197 523.298340,757.342224 529.079773,759.420959 
	C532.518250,760.657166 535.030701,762.725769 535.157715,766.995728 
	C536.226807,802.949463 538.690002,838.918030 538.185486,874.846375 
	C537.697327,909.608032 535.158691,944.423950 531.709595,979.035583 
	C528.775696,1008.477966 523.282593,1037.666260 518.876892,1066.960327 
	C517.996277,1072.815796 515.267700,1077.400635 509.138245,1078.954468 
	C503.255615,1080.445557 497.904510,1079.113281 494.726318,1073.790039 
	C493.070007,1071.015869 491.813782,1067.108398 492.343567,1064.054077 
	C506.569916,982.035583 512.490479,899.448730 509.843262,816.250977 
	C509.509491,805.760315 509.257202,795.247314 508.324921,784.802002 
	C507.661469,777.368164 508.198120,770.552185 513.267700,764.265503 
z"/><path fill="url(#gg)" opacity="1.000000" stroke="none" 
	d="
M34.021049,528.008789 
	C37.046764,497.684174 42.972656,468.346252 50.093971,439.229462 
	C51.384476,433.952972 55.909786,430.496338 61.856392,430.044800 
	C66.848763,429.665771 69.841805,432.432892 72.060600,436.583435 
	C75.476639,442.973572 75.743164,449.526184 73.875946,456.415527 
	C66.494949,483.648773 61.879158,511.318756 60.578987,539.544861 
	C59.622776,560.303833 62.114277,580.717407 65.383362,601.152832 
	C72.058983,642.882996 78.366333,684.672424 84.729660,726.452026 
	C86.378761,737.279541 78.388420,745.299927 67.383842,744.194885 
	C62.741207,743.728638 60.209919,740.860352 59.261135,734.970886 
	C56.985191,720.843140 54.755676,706.707703 52.432663,692.587769 
	C46.193050,654.661377 39.086716,616.851196 34.036331,578.767883 
	C31.850845,562.287903 33.875401,545.249573 34.021049,528.008789 
z"/><path fill="url(#gg)" opacity="1.000000" stroke="none" 
	d="
M286.066833,963.039001 
	C285.329376,970.788696 284.562683,978.073120 283.928741,985.369019 
	C282.805481,998.295776 273.637177,1000.830383 263.277161,999.799194 
	C258.892609,999.362732 256.586639,995.330750 257.022827,989.932678 
	C258.055084,977.157959 259.398804,964.407837 260.372406,951.629150 
	C264.211365,901.240723 264.902069,850.801819 261.107361,800.403442 
	C258.871552,770.709656 255.418533,741.107117 252.470993,711.467651 
	C252.006287,706.794739 256.195557,701.050110 261.970306,698.752197 
	C266.559448,696.926086 272.525909,698.722961 275.428711,702.379395 
	C279.760315,707.835510 279.985229,714.417725 280.743134,720.795166 
	C288.656982,787.387207 292.072662,854.172668 288.848877,921.212769 
	C288.185242,935.013611 287.027435,948.790771 286.066833,963.039001 
z"/><path fill="url(#gg)" opacity="1.000000" stroke="none" 
	d="
M421.949219,510.974182 
	C412.194885,526.688599 407.710022,543.587646 407.724060,561.577148 
	C407.728241,566.935059 406.379700,570.884521 401.441254,572.588013 
	C396.364960,574.339111 391.095734,573.799805 386.800140,570.224365 
	C383.263123,567.280334 381.246948,563.691650 381.671173,558.519226 
	C386.969788,493.911469 419.906525,448.718384 478.627411,422.730591 
	C513.929321,407.107178 550.885559,406.063873 588.145325,415.934052 
	C594.856689,417.711884 596.635620,420.504608 596.003418,428.086761 
	C595.534790,433.706207 591.873474,437.736023 586.035767,437.854645 
	C576.400269,438.050385 566.702026,438.258209 557.120239,437.425446 
	C526.961975,434.804291 498.327576,438.775177 472.319061,455.395721 
	C452.096893,468.318512 436.942810,485.999481 424.669189,506.363434 
	C423.810791,507.787628 422.959625,509.216187 421.949219,510.974182 
z"/><path fill="url(#gg)" opacity="1.000000" stroke="none" 
	d="
M735.933716,797.472107 
	C736.607056,806.144775 737.467712,814.431335 737.643555,822.732422 
	C738.731445,874.095398 737.234436,925.370728 731.141418,976.420349 
	C728.518433,998.396851 725.185730,1020.289856 722.057983,1042.203979 
	C720.955933,1049.924927 717.598694,1052.526367 709.865845,1052.047729 
	C707.717957,1051.914673 705.546204,1051.602905 703.464478,1051.066528 
	C696.064819,1049.159302 693.391113,1045.035522 694.575684,1037.396851 
	C697.074829,1021.280945 700.516296,1005.253540 701.974854,989.046143 
	C704.884949,956.709900 707.446472,924.306824 708.781677,891.874878 
	C709.980530,862.756775 709.365967,833.563232 709.500610,804.402710 
	C709.536194,796.693054 713.762451,789.680115 719.467041,788.220337 
	C725.225647,786.746704 731.830933,790.333862 735.933716,797.472107 
z"/><path fill="url(#gg)" opacity="1.000000" stroke="none" 
	d="
M487.925415,893.988770 
	C486.460052,939.281677 482.867035,983.902283 476.422424,1028.259766 
	C474.877106,1038.895996 472.682587,1049.497803 469.839111,1059.855347 
	C468.727448,1063.904419 465.417297,1067.631470 462.371582,1070.796143 
	C458.613586,1074.700928 452.518768,1075.052490 448.041992,1072.410645 
	C443.487671,1069.723145 442.897644,1065.695312 443.780151,1060.759277 
	C452.755798,1010.554810 458.645477,959.968750 460.438202,909.008789 
	C461.485504,879.238708 460.970123,849.411865 461.042633,819.610352 
	C461.065430,810.232849 467.889221,804.141846 477.363007,805.422729 
	C478.352844,805.556580 479.352844,805.623108 480.337799,805.784119 
	C486.669617,806.819092 487.842651,808.080078 487.857544,814.560364 
	C487.917908,840.870544 487.913635,867.180908 487.925415,893.988770 
z"/><path fill="url(#gg)" opacity="1.000000" stroke="none" 
	d="
M304.960938,991.873596 
	C310.148987,943.664124 312.776306,895.775818 312.209930,847.745972 
	C311.972290,827.592651 311.096344,807.445496 310.389679,787.299744 
	C310.109650,779.317749 316.294922,773.576904 325.776764,773.368225 
	C331.934631,773.232666 337.547546,779.250549 337.961792,786.059021 
	C340.931244,834.861938 340.721680,883.665955 336.969604,932.394714 
	C334.874268,959.606995 331.529602,986.725037 328.604126,1013.869995 
	C327.986542,1019.600342 325.636749,1024.448120 319.596008,1026.527832 
	C309.162415,1030.119873 301.051208,1023.554016 302.453400,1012.656494 
	C303.324463,1005.887085 304.114563,999.107178 304.960938,991.873596 
z"/><path fill="url(#gg)" opacity="1.000000" stroke="none" 
	d="
M646.333130,203.605988 
	C618.597473,195.902573 590.777832,191.004990 562.498108,188.617767 
	C555.013855,187.985977 550.791565,183.011978 550.883606,175.624481 
	C550.969666,168.719894 555.636658,163.262939 563.365906,163.473038 
	C579.803589,163.919830 596.433289,164.017639 612.596558,166.644394 
	C671.741882,176.256287 725.041992,200.538330 774.573853,233.665070 
	C781.109619,238.036118 782.385132,242.114868 779.219849,248.351913 
	C776.094971,254.509293 771.219055,256.217163 764.118591,254.010803 
	C750.215637,249.690735 738.149292,241.650452 725.393677,235.028351 
	C700.206482,221.952301 674.021973,211.455185 646.333130,203.605988 
z"/><path fill="url(#gg)" opacity="1.000000" stroke="none" 
	d="
M375.960876,1032.756836 
	C373.096863,1045.097046 368.590759,1048.330566 357.465179,1046.422241 
	C351.768158,1045.445068 348.803223,1041.578369 349.446655,1035.812866 
	C352.012085,1012.826904 354.799072,989.863892 357.149658,966.856201 
	C361.520386,924.075256 363.011719,881.161438 362.435852,838.170349 
	C362.375641,833.674622 361.957397,829.165588 362.188873,824.687683 
	C362.757538,813.686890 365.495056,811.848816 374.293182,811.958923 
	C376.123962,811.981812 377.959473,811.813965 379.786804,811.886292 
	C385.389832,812.108032 388.842804,815.656433 388.958954,821.217896 
	C389.891479,865.872986 388.858551,910.486389 384.800049,954.965942 
	C382.442108,980.807556 378.972076,1006.547668 375.960876,1032.756836 
z"/><path fill="url(#gg)" opacity="1.000000" stroke="none" 
	d="
M204.875519,543.932617 
	C202.755768,544.954712 201.016052,546.026367 199.125854,546.510315 
	C189.483734,548.979004 182.227356,542.620789 183.204987,532.687683 
	C188.498062,478.907440 206.068268,429.306335 234.566132,383.567230 
	C242.645584,370.599670 251.809464,358.305847 260.529449,345.740112 
	C264.998383,339.300201 271.522827,337.901794 278.664886,339.245972 
	C287.007965,340.816132 290.073822,347.782501 285.617737,355.017578 
	C277.858093,367.616364 269.985962,380.152039 261.881531,392.531189 
	C236.019608,432.034271 218.330505,474.656555 211.936188,521.682739 
	C211.142334,527.520935 210.070435,533.342651 208.693069,539.067505 
	C208.277069,540.796509 206.396072,542.173096 204.875519,543.932617 
z"/><path fill="url(#gg)" opacity="1.000000" stroke="none" 
	d="
M413.562805,864.499756 
	C413.983246,860.400391 414.201324,856.733337 414.789825,853.126709 
	C415.074524,851.382202 415.753296,849.534607 416.776428,848.108948 
	C419.980896,843.644104 427.408539,842.618286 435.355530,845.285461 
	C439.869751,846.800537 442.580627,851.042847 442.099518,856.806580 
	C440.008850,881.855042 437.784119,906.892395 435.591583,931.932312 
	C433.791138,952.495117 431.966553,973.055725 430.154419,993.617432 
	C428.430176,1013.182129 426.736420,1032.749512 424.968872,1052.310181 
	C424.396210,1058.648071 420.333496,1062.249390 414.022003,1062.163574 
	C411.860107,1062.134277 409.690552,1061.998169 407.542328,1061.754150 
	C400.537994,1060.958496 396.816162,1056.546387 397.399048,1049.510986 
	C398.938385,1030.931152 400.546295,1012.356812 402.174377,993.784424 
	C404.034882,972.560730 405.962677,951.342957 407.831482,930.120056 
	C409.744019,908.400635 411.620483,886.678101 413.562805,864.499756 
z"/><path fill="url(#gg)" opacity="1.000000" stroke="none" 
	d="
M213.680511,960.386414 
	C212.396805,957.042908 210.470230,953.967651 210.496918,950.909424 
	C210.981003,895.449280 211.706741,839.991150 212.358551,784.532410 
	C212.419434,779.352112 213.651031,774.551208 219.031113,772.863770 
	C224.959518,771.004395 231.501694,770.135803 236.396667,774.940491 
	C238.554520,777.058411 239.802856,781.117310 239.783981,784.284973 
	C239.535965,825.922363 238.988312,867.557983 238.514023,909.194031 
	C238.364136,922.351135 238.113205,935.508118 238.101715,948.665344 
	C238.096863,954.228577 237.843063,959.902832 232.001587,962.237915 
	C226.009842,964.632935 219.650513,964.750916 213.680511,960.386414 
z"/><path fill="url(#gg)" opacity="1.000000" stroke="none" 
	d="
M698.984863,583.759155 
	C706.775757,584.384644 708.865479,586.516846 709.955505,593.741821 
	C714.744507,625.484131 719.685059,657.203613 724.434387,688.951782 
	C726.698547,704.086548 728.730774,719.257324 730.729431,734.430054 
	C731.983032,743.946594 726.177551,750.340271 716.763672,750.112122 
	C710.925293,749.970642 706.976135,746.932800 705.970337,741.059448 
	C702.068726,718.276123 698.288696,695.471619 694.569580,672.657654 
	C690.528687,647.870483 686.679016,623.051941 682.553955,598.279053 
	C681.922791,594.488953 682.669678,591.931091 685.848633,589.736328 
	C689.779236,587.022766 693.116699,583.219849 698.984863,583.759155 
z"/><path fill="url(#gg)" opacity="1.000000" stroke="none" 
	d="
M586.184387,788.781616 
	C586.893066,809.539856 587.618042,829.825989 588.244080,850.115295 
	C588.454590,856.939941 585.933655,861.130310 580.896912,862.936340 
	C575.068481,865.026306 568.537720,863.288391 565.181274,857.702332 
	C563.049805,854.154846 561.414612,849.796631 561.173767,845.706787 
	C559.237366,812.827393 557.740112,779.922424 555.969116,747.032776 
	C555.629761,740.731079 554.496826,734.475037 554.052307,728.175232 
	C553.527344,720.734070 558.166138,715.900940 565.677429,715.736389 
	C567.835388,715.689148 570.013062,715.743591 572.156128,715.981689 
	C576.983704,716.518127 580.425720,719.833984 580.842896,724.662537 
	C582.675232,745.873474 584.398926,767.093872 586.184387,788.781616 
z"/><path fill="url(#gg)" opacity="1.000000" stroke="none" 
	d="
M547.103638,484.294373 
	C544.473389,485.228943 542.163147,486.419830 539.795837,486.547058 
	C507.736115,488.269867 483.387634,502.441650 467.591858,530.729492 
	C462.924896,539.087341 457.906036,539.807190 450.907837,533.389343 
	C441.879883,525.110107 441.170105,517.179077 448.702545,507.658966 
	C464.942444,487.133606 484.435455,471.052673 509.940552,463.363098 
	C521.502502,459.877258 533.359741,458.419586 545.439392,459.066467 
	C552.742798,459.457581 557.220764,465.870605 554.405945,472.701050 
	C552.733459,476.759644 549.776550,480.288971 547.103638,484.294373 
z"/><path fill="url(#gg)" opacity="1.000000" stroke="none" 
	d="
M212.794220,723.836182 
	C206.616165,721.893921 204.815247,717.211792 203.914581,711.881897 
	C200.504761,691.703613 197.101074,671.524292 193.675262,651.348694 
	C192.561981,644.792297 198.564758,638.026855 205.153320,638.467712 
	C215.474686,639.158386 221.841278,644.529968 223.254181,654.823853 
	C225.832794,673.610413 228.062408,692.447083 230.235321,711.286194 
	C231.243729,720.028992 228.080002,723.492249 219.177383,724.061401 
	C217.196442,724.187988 215.194214,723.981995 212.794220,723.836182 
z"/><path fill="url(#gg)" opacity="1.000000" stroke="none" 
	d="
M770.529541,504.597839 
	C772.932861,497.287354 775.500122,498.188202 784.998230,497.914856 
	C790.934570,497.744049 794.738159,501.186768 795.941589,506.195068 
	C800.543213,525.345032 803.376770,544.749939 804.348389,564.425781 
	C804.767395,572.912292 802.488037,576.515198 796.091858,577.317078 
	C785.873352,578.598145 778.719727,574.634705 777.686890,566.554016 
	C776.548035,557.643860 776.318115,548.614380 775.091553,539.719666 
	C773.912476,531.169861 771.815979,522.750183 770.436035,514.222595 
	C769.948975,511.213013 770.388184,508.053619 770.529541,504.597839 
z"/><path fill="url(#gg)" opacity="1.000000" stroke="none" 
	d="
M680.238647,322.846100 
	C674.640320,319.828674 669.253418,317.179199 664.167053,314.042358 
	C661.276062,312.259460 658.038208,310.163208 656.421936,307.362396 
	C652.446838,300.473907 657.236389,292.393311 665.346802,291.898743 
	C676.033813,291.247070 685.633545,294.862579 694.617737,300.317841 
	C699.025879,302.994415 703.362671,305.790558 707.690430,308.596405 
	C710.418335,310.365082 713.739014,311.644745 713.095215,316.033539 
	C712.354004,321.086792 710.666565,326.054474 705.648865,327.509003 
	C701.429199,328.732269 696.479553,328.484833 692.068726,327.690704 
	C688.085938,326.973663 684.395386,324.634064 680.238647,322.846100 
z"/></g><text x="132" y="86" font-family="Inter, system-ui, -apple-system, Segoe UI, sans-serif" font-weight="800" font-size="78" letter-spacing="-2.5" fill="#0B1220">Consent<tspan fill="#0278FF">X</tspan></text></svg>